<?xml version="1.0" standalone="no"?><svg xmlns="http://www.w3.org/2000/svg" viewBox="0 0 1440 320"><path fill="#a2d9ff" fill-opacity="0.3" d="M0,192L18.5,208C36.9,224,74,256,111,256C147.7,256,185,224,222,202.7C258.5,181,295,171,332,170.7C369.2,171,406,181,443,202.7C480,224,517,256,554,234.7C590.8,213,628,139,665,133.3C701.5,128,738,192,775,192C812.3,192,849,128,886,101.3C923.1,75,960,85,997,80C1033.8,75,1071,53,1108,80C1144.6,107,1182,181,1218,181.3C1255.4,181,1292,107,1329,85.3C1366.2,64,1403,96,1422,112L1440,128L1440,320L1421.5,320C1403.1,320,1366,320,1329,320C1292.3,320,1255,320,1218,320C1181.5,320,1145,320,1108,320C1070.8,320,1034,320,997,320C960,320,923,320,886,320C849.2,320,812,320,775,320C738.5,320,702,320,665,320C627.7,320,591,320,554,320C516.9,320,480,320,443,320C406.2,320,369,320,332,320C295.4,320,258,320,222,320C184.6,320,148,320,111,320C73.8,320,37,320,18,320L0,320Z"></path></svg>